PathFileType	4	(X/Y/Z)	Patient4_TMGait_0pt4_03_left_17.trc.trc
DataRate	CameraRate	NumFrames	NumMarkers	Units	OrigDataRate	OrigDataStartFrame	OrigNumFrames
74.866310160428	74.866310160428	5	33	mm	74.866310160428	36	       141
Frame#	Time	Sacral			L.Shoulder			Chest			R.Shoulder			Neck			R.ASIS			L.ASIS			R.Thigh.Superior			R.Thigh.Lateral			R.Thigh.Inferior			R.Patella			L.Thigh.Superior			L.Thigh.Lateral			L.Thigh.Inferior			L.Patella			L.Shank.Superior			L.Shank.Lateral			L.Shank.Inferior			R.Shank.Superior			R.Shank.Lateral			R.Shank.Inferior			R.Heel			R.Midfoot.Superior			R.Midfoot.Lateral			R.Toe			L.Heel			L.Midfoot.Lateral			L.Midfoot.Superior			L.Toe			L.Elbow			L.Wrist			R.Elbow			R.Wrist			
		X1	Y1	Z1	X2	Y2	Z2	X3	Y3	Z3	X4	Y4	Z4	X5	Y5	Z5	X6	Y6	Z6	X7	Y7	Z7	X8	Y8	Z8	X9	Y9	Z9	X10	Y10	Z10	X11	Y11	Z11	X12	Y12	Z12	X13	Y13	Z13	X14	Y14	Z14	X15	Y15	Z15	X16	Y16	Z16	X17	Y17	Z17	X18	Y18	Z18	X19	Y19	Z19	X20	Y20	Z20	X21	Y21	Z21	X22	Y22	Z22	X23	Y23	Z23	X24	Y24	Z24	X25	Y25	Z25	X26	Y26	Z26	X27	Y27	Z27	X28	Y28	Z28	X29	Y29	Z29	X30	Y30	Z30	X31	Y31	Z31	X32	Y32	Z32	X33	Y33	Z33	

36	22.587500000000	862.083160689363	1008.321488113697	479.013180332690	1028.677543822480	1424.362930259797	269.812478467094	1148.974836096221	1358.750250676593	419.720578212994	1089.660750745924	1439.992564096711	600.134797614723	1030.550220217937	1492.518890990787	424.542824917524	1095.311959789156	938.574394640592	581.725754246710	1064.042240954537	957.361379550986	307.058271599278	1099.421331387528	725.707003340325	558.239544916399	1002.582131907840	629.079223716551	625.784429510568	1067.677722237843	561.989133708008	548.892346404028	1051.570161157578	465.724027891828	563.604186924899	1134.160275330937	762.687313227230	338.507121463823	1063.848842209825	637.479424087748	272.759321259167	1161.959897627737	570.850469776790	331.265943858166	1172.293586277347	499.308403210234	335.478581053422	1146.685259542036	425.876058122906	325.716269668574	1060.521251897034	309.398746870539	274.302635425851	1120.527299619756	197.115250307551	335.895206872654	992.154235235483	391.051347710281	570.956469468432	890.193581714524	319.477416906917	636.142307507588	897.894089103343	213.101530406824	578.093225593237	720.762831054454	84.060308899720	553.939549163396	897.623304876750	101.776007994890	590.981038438023	800.449879153794	56.119804678733	626.303766205907	1004.569116555931	37.472088347621	617.295757253175	1002.043898776806	39.102445432538	376.366052343080	1072.781831513669	36.275716007762	293.230053670910	1156.605734497569	97.806063746848	317.739400736294	1284.149504866515	45.806228322924	283.421205668131	932.357466542466	1079.188668981018	177.329050337487	968.668108755043	819.141313731369	165.459365271831	1126.413795685940	1094.093304950415	721.471804854693	1339.873597079787	984.307957454500	635.305656806635	
37	22.600857142857	862.260480392212	1008.691171581041	475.131189287629	1029.248351781863	1424.978188307592	266.250170146519	1149.114434745621	1359.557142887314	416.555274683632	1089.100578910571	1440.688334537692	596.773464434882	1030.589956209768	1493.089422016999	420.987218008006	1095.568649892337	939.364298145623	578.889187381180	1064.890328251700	957.925113969953	303.726953081080	1102.401566036791	726.601552660800	555.296531684338	1007.402557990983	628.994704443885	623.435639675814	1073.899282267436	562.277143726592	546.873362167748	1058.693615695486	464.562217113011	563.185625789040	1134.142915345417	762.200088405412	334.398883026356	1061.983481438318	637.246912853508	270.209336719574	1159.774351853684	570.067468529326	328.440962464897	1169.527285744048	498.732029555314	333.443012375626	1143.723947368514	425.261506434140	324.110096407414	1057.133627337606	309.019984619687	272.992689607254	1116.179734482657	196.750491037369	335.392930921240	997.025041130927	390.930190343302	570.526206478654	892.734847785681	322.387332569205	635.229122114429	898.455054677583	215.353454562751	578.273590671881	718.076858608705	91.070546127766	554.165771280858	895.316461481787	102.618469214608	591.140311374358	796.740087131648	60.128716852891	626.395833682251	999.517910016984	37.304009196790	617.150165559018	996.719846781034	39.084380373059	376.284317280656	1067.439000453374	36.189799679732	293.118733110303	1151.337072348969	97.653593992615	317.664748238243	1278.883070266138	45.440570185884	283.327108136244	936.322054653063	1079.137369117303	171.782261635208	980.384516217386	820.175842264637	159.409572653838	1122.358153123149	1094.657354723119	719.154117494342	1332.019400667313	973.703513726668	637.134423249126	
38	22.614214285714	862.309958863783	1008.941767671200	471.218379111611	1029.915480504210	1425.496436618248	262.686063150833	1149.211285934206	1360.264641166854	413.493780678973	1088.342291296401	1441.249085739860	593.475036190901	1030.550845027685	1493.552204847601	417.443334613999	1095.651317845838	940.025294027590	576.053048386891	1065.714936350535	958.370067376382	300.496846459972	1105.858700299433	727.600263695409	552.472894182680	1012.929034513171	628.845951179220	621.149413529727	1081.038028716390	562.657749198769	544.950816750166	1066.815952587526	463.488207886707	562.774461621905	1133.976303735371	761.525834674234	330.456168260876	1060.162042972851	636.980717198996	267.631638687930	1157.481184946034	569.246118240526	325.812558988508	1166.647605842378	498.081792626446	331.458551057907	1140.648430920382	424.582097870961	322.512812621332	1053.644235019354	308.565752126430	271.694022932510	1111.765328924259	196.336729102963	334.888109950549	1002.892315323340	390.878123344132	570.122211838551	896.254729319614	325.610258676096	634.330592035823	899.803353670712	217.967626175832	578.500162410676	716.106884458226	99.128904441268	554.405118737003	893.453191229146	103.666706674456	591.248922378726	793.453123539207	64.937121095026	626.506828706812	994.485493788362	37.042188091595	617.011543238254	991.338451966776	39.043821387226	376.214461471093	1062.037467905687	36.078030021848	293.012777260895	1146.016060894546	97.459844414227	317.606258440198	1273.561761603550	45.030433806797	283.252759883536	940.402608021393	1079.070904029981	166.141300425031	992.385192947890	821.457884655207	153.198993042413	1118.005886875782	1095.129529564549	716.873327860836	1323.364388361002	963.133696389336	639.354697748223	
39	22.627571428571	862.225019036620	1009.061753506707	467.316992311283	1030.666483552406	1425.904521980209	259.153679569461	1149.264020779462	1360.838036898975	410.553081229595	1087.414366065297	1441.655561544654	590.259055872556	1030.448671402217	1493.894351195123	413.942814261358	1095.526859723950	940.525531093123	573.144774342501	1066.469622910419	958.696247812948	297.359800310700	1109.758327554665	728.754160836368	549.766498879049	1019.155343324836	628.682821178270	618.940611224573	1089.060898778532	563.201778451902	543.126047990801	1075.907209013939	462.597173810486	562.334433994046	1133.679463201735	760.745136260410	326.764473082461	1058.466201314910	636.704011589506	265.058117174900	1155.168860884910	568.418286480975	323.401142531042	1163.743084911428	497.376368009526	329.552209029862	1137.537424618073	423.851237299502	320.946694681420	1050.123102339376	308.064844570427	270.410093704061	1107.323147851433	195.887278968166	334.384289058679	1009.766448291105	390.954396906337	569.707123735073	900.809829913484	329.182029150679	633.443948091145	901.986953986129	221.003720301597	578.749788416608	714.983496067114	108.348277098528	554.647544294811	892.079639172155	105.032123375422	591.310760689056	790.679621930431	70.676524725817	626.631906960861	989.482529343158	36.637594777995	616.900081160363	985.928077005643	38.991573025280	376.145392104549	1056.607961580977	35.956593601972	292.904832939613	1140.667257593836	97.248917486864	317.555619076941	1268.213339548732	44.607924530010	283.192470295483	944.695452402763	1078.963457609783	160.416621296375	1004.624857059055	822.955434732664	146.884856176632	1113.299983500041	1095.481784879017	714.652017206083	1313.888969735895	952.722219611709	641.947437531472	
40	22.640928571429	862.006604421956	1009.041744426713	463.465609813053	1031.475595782684	1426.193500074182	255.685431520683	1149.263187543246	1361.254584042438	407.747630567205	1086.336360052622	1441.898117647098	587.144288040512	1030.297806866667	1494.109811429294	410.515559991608	1095.177456096923	940.849880815247	570.118634012550	1067.118668460269	958.907818410401	294.314995121658	1114.039836021365	730.117306126303	547.162684257568	1026.036836661293	628.569601879134	616.816079741991	1097.880374080924	563.988199995363	541.386134102491	1085.890055552797	461.988505514177	561.824668557292	1133.277764772865	759.924901540483	323.374489660996	1056.934911615850	636.424163332387	262.524468365227	1152.908434584890	567.602706974718	321.199717434474	1160.891911315161	496.631485367197	327.739705532515	1134.458148518010	423.079916914191	319.429156645286	1046.624665972024	307.542428994208	269.148537031414	1102.883162728041	195.413094916534	333.885122152885	1017.607242449407	391.226823661675	569.237369877195	906.408914683568	333.128825311353	632.558035218756	905.023534911841	224.511822436811	578.988569344152	714.825265634198	118.787450106699	554.865875850300	891.237060177070	106.834379697481	591.328068994583	788.510473691689	77.447752613575	626.754308521349	984.529293447467	36.052174728288	616.834642970829	980.511808134116	38.936860048466	376.069487686903	1051.174665464610	35.837931665127	292.790362220320	1135.310744370510	97.039601478561	317.505466949798	1262.860110913389	44.197074077459	283.139844016543	949.294314388449	1078.794422719340	154.618474186808	1017.077545977609	824.631926855490	140.531538317510	1108.188215363806	1095.698993375503	712.511281736652	1303.584701654315	942.571255809545	644.900367131795	
